HIERARCHY
ROOT Hips
{
	OFFSET -3.958830 18.904000 13.208200
	CHANNELS 6 Xposition Yposition Zposition Zrotation Yrotation Xrotation 
	JOINT LHipJoint
	{
		OFFSET 0.000000 0.000000 0.000000
		CHANNELS 3 Zrotation Yrotation Xrotation
		JOINT LeftUpLeg
		{
			OFFSET 1.800000 -1.400000 0.085000
			CHANNELS 3 Zrotation Yrotation Xrotation
			JOINT LeftLeg
			{
				OFFSET 2.215000 -6.000000 0.000000
				CHANNELS 3 Zrotation Yrotation Xrotation
				JOINT LeftFoot
				{
					OFFSET 2.500000 -6.900000 0.000000
					CHANNELS 3 Zrotation Yrotation Xrotation
					JOINT LeftToeBase
					{
						OFFSET 0.200000 -0.500000 1.950000
						CHANNELS 3 Zrotation Yrotation Xrotation
						End Site
						{
							OFFSET 0.000000 0.000000 0.000000
						}
					}
				}
			}
		}
	}
	JOINT RHipJoint
	{
		OFFSET 0.000000 0.000000 0.000000
		CHANNELS 3 Zrotation Yrotation Xrotation
		JOINT RightUpLeg
		{
			OFFSET -1.800000 -1.400000 0.085000
			CHANNELS 3 Zrotation Yrotation Xrotation
			JOINT RightLeg
			{
				OFFSET -2.215000 -6.000000 0.000000
				CHANNELS 3 Zrotation Yrotation Xrotation
				JOINT RightFoot
				{
					OFFSET -2.500000 -6.900000 0.000000
					CHANNELS 3 Zrotation Yrotation Xrotation
					JOINT RightToeBase
					{
						OFFSET -0.200000 -0.500000 1.950000
						CHANNELS 3 Zrotation Yrotation Xrotation
						End Site
						{
							OFFSET 0.000000 0.000000 0.000000
						}
					}
				}
			}
		}
	}
	JOINT LowerBack
	{
		OFFSET 0.000000 0.000000 0.000000
		CHANNELS 3 Zrotation Yrotation Xrotation
		JOINT Spine
		{
			OFFSET -0.087000 1.940000 -0.288900
			CHANNELS 3 Zrotation Yrotation Xrotation
			JOINT Spine1
			{
				OFFSET 0.000000 1.950000 0.060000
				CHANNELS 3 Zrotation Yrotation Xrotation
				JOINT Neck
				{
					OFFSET 0.000000 0.000000 0.000000
					CHANNELS 3 Zrotation Yrotation Xrotation
					JOINT Neck1
					{
						OFFSET 0.000000 1.600000 0.340000
						CHANNELS 3 Zrotation Yrotation Xrotation
						JOINT Head
						{
							OFFSET 0.000000 1.667000 -0.240000
							CHANNELS 3 Zrotation Yrotation Xrotation
							End Site
							{
								OFFSET 0.000000 0.000000 0.000000
							}
						}
					}
				}
				JOINT LeftShoulder
				{
					OFFSET 0.000000 0.000000 0.000000
					CHANNELS 3 Zrotation Yrotation Xrotation
					JOINT LeftArm
					{
						OFFSET 2.700000 1.550000 -0.730000
						CHANNELS 3 Zrotation Yrotation Xrotation
						JOINT LeftForeArm
						{
							OFFSET 5.450000 0.000000 0.000000
							CHANNELS 3 Zrotation Yrotation Xrotation
							JOINT LeftHand
							{
								OFFSET 3.450000 0.000000 0.000000
								CHANNELS 3 Zrotation Yrotation Xrotation
								JOINT LeftHandIndex1
								{
									OFFSET 0.750000 0.000000 0.000000
									CHANNELS 3 Zrotation Yrotation Xrotation
									End Site
									{
										OFFSET 0.000000 0.000000 0.000000
									}
								}
							}
						}
					}
				}
				JOINT RightShoulder
				{
					OFFSET 0.000000 0.000000 0.000000
					CHANNELS 3 Zrotation Yrotation Xrotation
					JOINT RightArm
					{
						OFFSET -2.700000 1.550000 -0.730000
						CHANNELS 3 Zrotation Yrotation Xrotation
						JOINT RightForeArm
						{
							OFFSET -5.450000 0.000000 0.000000
							CHANNELS 3 Zrotation Yrotation Xrotation
							JOINT RightHand
							{
								OFFSET -3.450000 0.000000 0.000000
								CHANNELS 3 Zrotation Yrotation Xrotation
								JOINT RightHandIndex1
								{
									OFFSET -0.750000 0.000000 0.000000
									CHANNELS 3 Zrotation Yrotation Xrotation
									End Site
									{
										OFFSET 0.000000 0.000000 0.000000
									}
								}
							}
						}
					}
				}
			}
		}
	}
}
MOTION
Frames: 13
Frame Time: 0.016667
0.232450 17.976140 -2.788440 -15.974366 13.075889 1.135556 -14.792013 11.298466 0.983136 8.458238 -1.606071 -12.779356 -1.787597 4.911138 15.774734 -1.404452 4.190540 3.364280 0.343000 -0.085050 0.180460 19.293629 -7.790129 6.958440 -15.620723 18.240638 -70.904082 11.758463 -43.655506 102.653820 -4.387227 -20.621202 -1.020273 0.238650 0.569830 0.066960 -5.559783 -0.831731 -8.683411 32.264453 -9.955759 15.175042 -7.671399 -4.346701 14.982038 1.924462 -1.411643 -7.994128 -5.615132 -1.726302 41.209828 -3.820430 -3.560500 -15.134700 -12.092491 -5.244305 1.523446 -8.104467 15.626654 -7.599290 76.406964 -89.155933 -72.006057 -3.548229 -0.797936 0.959820 0.303400 -0.234180 0.203230 8.228292 2.089757 5.607446 15.335829 -17.712881 -10.109499 10.933447 86.414616 5.425769 1.320420 -1.705323 -0.715350 0.713440 0.224070 -0.413020 
0.186650 17.991450 -2.785560 -16.125771 11.038316 1.516037 -14.783604 11.211323 1.053400 8.694543 -1.797347 -13.615323 -2.607381 4.920030 14.995631 -1.389312 4.112496 3.377225 0.395260 -0.018390 0.186820 19.273874 -7.770555 6.966060 -16.359237 17.907764 -70.451113 13.252959 -47.987571 104.668154 -4.696084 -21.552032 -1.155436 0.264270 0.553200 0.113640 -5.544997 -0.781965 -8.752677 31.828013 -9.505073 14.494307 -7.249734 -4.060417 16.289455 1.858270 -1.246270 -8.821305 -5.203817 -1.550967 41.501797 -3.731330 -3.182130 -14.819920 -11.860817 -3.567178 3.435952 -8.650008 13.101417 -2.607513 94.573945 -83.184808 -89.691048 -4.077004 -1.965702 0.950490 0.303430 -0.200300 0.238640 8.083216 0.938490 5.192145 16.154008 -18.378718 -9.902060 19.809872 85.698198 12.512691 1.325112 -1.814052 -0.669760 0.668560 0.187320 -0.392150 
0.146500 17.987090 -2.768230 -16.207567 9.526062 1.252657 -14.783956 11.181993 1.120882 8.768497 -1.811306 -13.124338 -3.334747 4.801665 13.059518 -1.418658 4.035145 3.415044 0.413520 0.005570 0.206660 19.239611 -7.817138 6.804294 -15.876581 17.190116 -67.389962 14.404919 -50.700530 105.142988 -4.826553 -21.904337 -1.186957 0.293160 0.540600 0.061630 -5.502948 -0.807837 -8.659597 31.596555 -9.969165 13.836312 -7.804346 -4.590437 17.513190 2.118898 -2.276358 -9.266278 -7.345752 -0.466423 41.878328 -3.028520 -3.115250 -15.473450 -11.856718 -1.999780 4.522974 -9.159470 13.189041 -0.959322 108.722292 -80.031986 -108.428083 -4.296543 0.938400 0.968310 0.276360 -0.207660 0.232590 8.004118 0.225410 5.120443 17.487566 -18.715806 -9.968940 29.549625 85.954130 20.229736 1.341098 -1.813655 -0.698590 0.710120 0.179820 -0.406190 
0.112240 17.964610 -2.739960 -15.788757 8.167006 0.898407 -14.791953 11.285320 1.233048 8.062350 -1.691945 -12.485336 -3.501575 4.546344 11.359748 -1.318144 3.887957 3.498790 0.427510 0.064170 0.177570 19.180503 -7.982760 6.507617 -14.246861 15.873246 -61.742076 15.692738 -50.516127 102.467822 -4.750778 -21.431342 -1.082028 0.286510 0.555580 0.087020 -5.425813 -0.964056 -8.525125 30.581756 -10.183574 13.313161 -7.959134 -5.367651 17.382832 2.190240 -2.483413 -9.102126 -8.026783 0.226146 42.711910 -3.213500 -2.523740 -14.471530 -11.827100 -2.221439 3.868438 -10.890467 14.965005 -4.034652 134.749933 -81.401525 -137.745934 -3.943551 2.759717 0.915530 0.292660 -0.175980 0.286370 7.991821 0.175206 5.531635 18.386471 -18.756651 -9.912115 36.556993 84.607110 24.905933 1.405446 -1.827575 -0.637930 0.693250 0.132170 -0.347680 
0.066600 17.891580 -2.690330 -15.227726 6.936630 0.821737 -14.802897 11.346766 1.332456 7.118176 -1.622387 -11.940236 -3.425052 4.236978 9.723843 -1.305916 3.776803 3.555282 0.468870 0.115740 0.200390 19.134980 -8.102149 6.260126 -13.764222 14.172817 -56.673797 18.995470 -51.135798 97.757724 -4.624381 -20.790707 -0.982479 0.313740 0.553130 0.111630 -5.364404 -1.104758 -8.384348 29.233468 -9.939102 11.822470 -7.674509 -5.878977 17.843930 2.122259 -2.470251 -8.931944 -8.114128 0.880380 43.225208 -3.889700 -1.596460 -13.768100 -11.230659 -1.428976 3.455423 -12.781685 15.538684 -5.275348 156.151602 -80.396441 -160.800607 -3.838260 2.942321 0.896590 0.308790 -0.159770 0.315870 7.591080 -0.855287 5.618866 18.989978 -18.555773 -9.239357 45.965758 82.541156 30.670744 1.455277 -1.831465 -0.615520 0.676320 0.095810 -0.338270 
0.010610 17.822450 -2.627060 -14.253077 3.542282 0.549554 -14.810265 11.457054 1.446885 5.778034 -1.288629 -10.353163 -3.198978 3.992570 8.229007 -1.276221 3.708390 3.579337 0.533310 0.213030 0.213210 19.091111 -8.304808 5.947631 -12.914728 13.395700 -50.487583 21.052107 -49.764400 93.528085 -4.444332 -19.938894 -0.846611 0.359830 0.535340 0.132250 -5.320442 -1.162032 -8.203667 27.227510 -8.942101 10.776669 -7.504065 -5.700113 18.621399 1.973342 -2.816310 -8.741499 -9.023914 2.283322 44.851341 -3.588170 -0.676310 -13.939710 -10.991597 -0.311044 3.229713 -15.148852 15.639871 -6.024457 169.310784 -79.213892 -176.161084 -3.775393 2.980486 0.885750 0.305430 -0.126080 0.348890 7.671253 -1.662993 5.428018 19.560728 -17.728185 -8.849200 53.243992 80.172283 34.162458 1.496217 -1.799392 -0.575600 0.664500 0.058660 -0.319440 
-0.056910 17.730630 -2.590390 -12.931411 -0.007106 0.012752 -14.840514 11.721553 1.525020 4.169923 -1.074724 -10.022150 -2.607431 4.128586 10.293670 -1.277425 3.763934 3.562667 0.562010 0.253830 0.216640 19.013209 -8.566202 5.619183 -11.743837 12.567560 -44.843631 20.024333 -46.765840 91.560500 -4.246974 -19.212955 -0.733044 0.392550 0.559730 0.137080 -5.189785 -1.365894 -8.007898 24.511913 -7.971167 10.709994 -7.085862 -5.333074 18.756474 1.705054 -3.386825 -8.308526 -10.261845 3.643180 45.107382 -3.196640 0.075690 -13.708400 -10.285465 1.610331 2.712126 -18.104352 13.806955 -6.166174 173.483855 -78.473170 178.646174 -3.767970 2.991484 0.876110 0.321060 -0.127480 0.374050 7.415959 -2.931573 5.010791 20.683982 -16.854769 -8.742597 58.779820 77.531239 35.995232 1.502154 -1.787787 -0.577640 0.684310 0.044980 -0.308830 
-0.123370 17.595850 -2.573160 -12.119156 -3.388544 0.520197 -14.870101 11.886703 1.602653 2.887072 -1.279040 -11.858882 -2.194738 4.255231 12.961876 -1.328251 3.824460 3.526410 0.581620 0.305520 0.181200 18.955972 -8.848442 5.231686 -10.188406 11.705972 -40.193135 17.672927 -43.317978 90.501609 -4.028937 -18.642080 -0.656739 0.459200 0.647760 0.173200 -5.087478 -1.416117 -7.704223 22.494133 -7.225514 8.762987 -6.791078 -5.120684 19.010689 1.314199 -3.834798 -7.328959 -10.665293 5.115715 43.484780 -3.350120 1.116290 -12.154200 -9.777479 4.005687 2.289001 -21.262307 12.558939 -5.754289 176.422012 -76.852576 174.823587 -3.870814 3.065441 0.785780 0.418700 -0.189050 0.395930 7.636658 -4.814865 3.878721 19.979215 -14.603620 -7.574820 64.000989 74.959252 37.845133 1.470614 -1.830416 -0.572980 0.695060 0.066350 -0.282950 
-0.209280 17.448380 -2.563930 -11.077122 -7.479452 1.368455 -14.928959 12.060385 1.747772 1.756960 -1.708906 -14.304177 -2.278907 4.665205 16.723919 -1.298711 4.015857 3.460743 0.630410 0.402860 0.165620 18.870844 -9.115074 4.820687 -8.128768 11.071944 -35.750271 16.003368 -38.922903 87.558100 -3.735414 -17.720242 -0.481527 0.544730 0.726820 0.178930 -4.898374 -1.513612 -7.425804 19.692473 -6.102778 7.146200 -5.836225 -4.449668 18.881540 0.740583 -4.361877 -6.432015 -11.202796 6.167868 41.016852 -3.277400 1.736600 -10.516890 -9.259626 6.424476 2.093972 -25.194076 11.628537 -5.426979 178.171950 -75.591735 172.362266 -3.916802 3.153241 0.674160 0.498190 -0.238100 0.460570 8.109373 -6.291529 2.746810 19.742048 -12.665297 -6.787155 67.363053 72.904577 38.765524 1.449626 -1.925097 -0.563400 0.716760 0.020620 -0.233760 
-0.305800 17.299940 -2.576010 -9.551419 -12.728953 1.945672 -15.024921 12.238926 1.984915 0.464251 -2.260185 -16.850432 -2.414661 5.284536 21.138636 -1.204304 4.421133 3.319600 0.590690 0.383770 0.092240 18.746572 -9.332630 4.436105 -6.809468 10.697324 -31.572551 13.751202 -33.993779 84.744039 -3.389116 -16.695258 -0.265331 0.546270 0.820370 0.196390 -4.591790 -1.699537 -7.265308 15.939660 -4.265566 6.632758 -4.121111 -2.954824 18.305004 0.270026 -4.670968 -6.024224 -11.507294 6.919437 38.963619 -3.500350 2.443950 -8.089930 -9.262604 8.058031 2.177383 -29.553681 11.029853 -5.456581 176.770010 -74.549591 173.753887 -3.975816 3.235600 0.580340 0.583070 -0.301570 0.501190 8.829271 -6.826277 2.163981 20.488478 -11.914177 -6.740957 69.311349 71.427831 39.028241 1.445724 -1.981111 -0.565990 0.710010 0.023840 -0.189690 
-0.395760 17.144870 -2.563340 -8.440753 -17.380959 2.316068 -15.114553 12.374815 2.224704 -0.015264 -2.809838 -18.791413 -3.051157 6.027866 24.636327 -1.204384 4.965153 3.108696 0.562230 0.354380 0.051980 18.633284 -9.596321 3.964719 -5.743483 9.706428 -26.899100 11.600584 -29.394231 81.000551 -3.009460 -15.550992 -0.042284 0.580990 0.897900 0.195300 -4.299262 -1.785782 -7.036317 12.888699 -2.651209 5.471646 -2.676964 -1.541209 18.048110 -0.123620 -4.719215 -5.430272 -11.162826 7.731399 36.800289 -3.222280 3.155010 -7.263790 -9.255728 9.576651 2.067450 -34.076658 9.827552 -5.313200 177.228501 -73.838044 172.850499 -4.040855 3.264249 0.547820 0.651340 -0.377220 0.490790 9.471091 -7.610525 1.551781 21.275558 -11.615735 -6.820895 69.387094 68.633964 37.382368 1.344143 -2.066612 -0.619320 0.735780 0.073680 -0.200280 
-0.469060 17.011300 -2.535710 -8.095495 -22.610111 2.681540 -15.119382 12.437773 2.478455 0.429980 -3.322614 -20.550780 -4.336124 7.231070 28.441018 -1.050539 5.716542 2.838219 0.484700 0.236390 0.016030 18.592412 -10.005181 3.467301 -4.555292 8.596567 -21.874673 8.955205 -24.118160 75.959116 -2.539059 -14.133565 0.262085 0.524900 0.960380 0.229830 -4.237344 -1.494266 -6.820469 11.897905 -0.998667 4.474216 -2.205178 -0.015192 17.345746 -0.129925 -4.646230 -5.062836 -10.535964 8.033839 35.200521 -3.766940 3.983110 -4.349270 -9.223865 10.899401 1.956571 -39.180305 8.607994 -5.758087 -174.993571 -75.103143 163.089206 -4.073398 3.322433 0.468120 0.724030 -0.459410 0.467100 9.301773 -8.496225 1.266698 24.032101 -10.941549 -7.143445 66.526976 66.378886 34.446392 1.311810 -2.187194 -0.624890 0.670230 0.111270 -0.198950 
-0.552640 16.900270 -2.525780 -7.940916 -29.088685 3.086521 -15.092740 12.416398 2.715471 1.635409 -3.511638 -21.789113 -6.820099 8.964506 31.158167 -0.877589 6.522670 2.551053 0.426910 0.155640 -0.012990 18.584414 -10.422191 3.030001 -3.663582 7.701781 -16.813647 6.373711 -19.205161 70.464877 -2.090390 -12.713882 0.628061 0.484140 1.006690 0.231520 -4.311940 -0.998679 -6.615303 11.539750 0.785191 3.619329 -2.609722 1.716904 16.629195 -0.097597 -4.879776 -4.651516 -10.392906 9.034502 34.075191 -3.866560 5.165610 -2.202070 -9.701219 12.129766 1.753059 -43.419137 8.355563 -6.879614 -164.452168 -76.875804 150.643691 -4.080874 3.295096 0.407290 0.775220 -0.530450 0.449560 9.512347 -9.071805 0.933178 28.042143 -9.383867 -7.707355 60.084635 64.285765 29.754817 1.288403 -2.246869 -0.635960 0.630010 0.133510 -0.200810 
